<svg width="50" height="50" viewBox="0 0 50 50" fill="none" xmlns="http://www.w3.org/2000/svg">
<path d="M5 10C7.76142 10 10 7.76142 10 5C10 2.23858 7.76142 0 5 0C2.23858 0 0 2.23858 0 5C0 7.76142 2.23858 10 5 10Z" fill="#0891B2"/>
<path d="M45 0V40" stroke="#0891B2" stroke-width="2"/>
<path d="M45 10C47.7614 10 50 7.76142 50 5C50 2.23858 47.7614 0 45 0C42.2386 0 40 2.23858 40 5C40 7.76142 42.2386 10 45 10Z" fill="#0891B2"/>
<path d="M5 50C7.76142 50 10 47.7614 10 45C10 42.2386 7.76142 40 5 40C2.23858 40 0 42.2386 0 45C0 47.7614 2.23858 50 5 50Z" fill="#0891B2"/>
<path d="M45 50C47.7614 50 50 47.7614 50 45C50 42.2386 47.7614 40 45 40C42.2386 40 40 42.2386 40 45C40 47.7614 42.2386 50 45 50Z" fill="#0891B2"/>
<path d="M5 5H45" stroke="#0891B2" stroke-width="2"/>
<path d="M5 45H45" stroke="#0891B2" stroke-width="2"/>
<path d="M5 5V45" stroke="#0891B2" stroke-width="2"/>
<path d="M35 15H15V35H35V15Z" fill="#0891B2"/>
<path d="M23.0312 24.8418L24.7129 25.375C24.4551 26.3125 24.0254 27.0098 23.4238 27.4668C22.8262 27.9199 22.0664 28.1465 21.1445 28.1465C20.0039 28.1465 19.0664 27.7578 18.332 26.9805C17.5977 26.1992 17.2305 25.1328 17.2305 23.7812C17.2305 22.3516 17.5996 21.2422 18.3379 20.4531C19.0762 19.6602 20.0469 19.2637 21.25 19.2637C22.3008 19.2637 23.1543 19.5742 23.8105 20.1953C24.2012 20.5625 24.4941 21.0898 24.6895 21.7773L22.9727 22.1875C22.8711 21.7422 22.6582 21.3906 22.334 21.1328C22.0137 20.875 21.623 20.7461 21.1621 20.7461C20.5254 20.7461 20.0078 20.9746 19.6094 21.4316C19.2148 21.8887 19.0176 22.6289 19.0176 23.6523C19.0176 24.7383 19.2129 25.5117 19.6035 25.9727C19.9941 26.4336 20.502 26.6641 21.127 26.6641C21.5879 26.6641 21.9844 26.5176 22.3164 26.2246C22.6484 25.9316 22.8867 25.4707 23.0312 24.8418ZM28.3984 28L25.3281 19.4102H27.209L29.3828 25.7676L31.4863 19.4102H33.3262L30.25 28H28.3984Z" fill="white"/>
</svg>
