<svg width="38" height="38" viewBox="0 0 38 38" fill="none" xmlns="http://www.w3.org/2000/svg">
<g clip-path="url(#clip0_110_81)">
<path d="M30 0H8C3.58172 0 0 3.58172 0 8V30C0 34.4183 3.58172 38 8 38H30C34.4183 38 38 34.4183 38 30V8C38 3.58172 34.4183 0 30 0Z" fill="#065F46"/>
<path d="M25.6 9H9.4C8.6268 9 8 9.6268 8 10.4C8 11.1732 8.6268 11.8 9.4 11.8H25.6C26.3732 11.8 27 11.1732 27 10.4C27 9.6268 26.3732 9 25.6 9Z" fill="white"/>
<path opacity="0.6" d="M20.8 15.5H9.2C8.53726 15.5 8 16.0373 8 16.7C8 17.3627 8.53726 17.9 9.2 17.9H20.8C21.4627 17.9 22 17.3627 22 16.7C22 16.0373 21.4627 15.5 20.8 15.5Z" fill="white"/>
<path opacity="0.6" d="M22.8 21.5H9.2C8.53726 21.5 8 22.0373 8 22.7C8 23.3627 8.53726 23.9 9.2 23.9H22.8C23.4627 23.9 24 23.3627 24 22.7C24 22.0373 23.4627 21.5 22.8 21.5Z" fill="white"/>
<path opacity="0.35" d="M16.8 27.5H9.2C8.53726 27.5 8 28.0373 8 28.7C8 29.3627 8.53726 29.9 9.2 29.9H16.8C17.4627 29.9 18 29.3627 18 28.7C18 28.0373 17.4627 27.5 16.8 27.5Z" fill="white"/>
<path d="M32 14C34.4853 14 36.5 11.9853 36.5 9.5C36.5 7.01472 34.4853 5 32 5C29.5147 5 27.5 7.01472 27.5 9.5C27.5 11.9853 29.5147 14 32 14Z" fill="#34D399"/>
<path d="M32 11.5C33.1046 11.5 34 10.6046 34 9.5C34 8.39543 33.1046 7.5 32 7.5C30.8954 7.5 30 8.39543 30 9.5C30 10.6046 30.8954 11.5 32 11.5Z" fill="#065F46"/>
</g>
<defs>
<clipPath id="clip0_110_81">
<rect width="38" height="38" fill="white"/>
</clipPath>
</defs>
</svg>
