<svg width="260" height="60" viewBox="0 0 260 60" fill="none" xmlns="http://www.w3.org/2000/svg">
<path d="M5 15C7.76142 15 10 12.7614 10 10C10 7.23858 7.76142 5 5 5C2.23858 5 0 7.23858 0 10C0 12.7614 2.23858 15 5 15Z" fill="#8A79AB"/>
<path d="M45 5V45" stroke="#8A79AB" stroke-width="2"/>
<path d="M45 15C47.7614 15 50 12.7614 50 10C50 7.23858 47.7614 5 45 5C42.2386 5 40 7.23858 40 10C40 12.7614 42.2386 15 45 15Z" fill="#8A79AB"/>
<path d="M5 55C7.76142 55 10 52.7614 10 50C10 47.2386 7.76142 45 5 45C2.23858 45 0 47.2386 0 50C0 52.7614 2.23858 55 5 55Z" fill="#8A79AB"/>
<path d="M45 55C47.7614 55 50 52.7614 50 50C50 47.2386 47.7614 45 45 45C42.2386 45 40 47.2386 40 50C40 52.7614 42.2386 55 45 55Z" fill="#8A79AB"/>
<path d="M5 10H45" stroke="#8A79AB" stroke-width="2"/>
<path d="M5 50H45" stroke="#8A79AB" stroke-width="2"/>
<path d="M5 10V50" stroke="#8A79AB" stroke-width="2"/>
<path d="M35 20H15V40H35V20Z" fill="#8A79AB"/>
<path d="M23.0312 29.8418L24.7129 30.375C24.4551 31.3125 24.0254 32.0098 23.4238 32.4668C22.8262 32.9199 22.0664 33.1465 21.1445 33.1465C20.0039 33.1465 19.0664 32.7578 18.332 31.9805C17.5977 31.1992 17.2305 30.1328 17.2305 28.7812C17.2305 27.3516 17.5996 26.2422 18.3379 25.4531C19.0762 24.6602 20.0469 24.2637 21.25 24.2637C22.3008 24.2637 23.1543 24.5742 23.8105 25.1953C24.2012 25.5625 24.4941 26.0898 24.6895 26.7773L22.9727 27.1875C22.8711 26.7422 22.6582 26.3906 22.334 26.1328C22.0137 25.875 21.623 25.7461 21.1621 25.7461C20.5254 25.7461 20.0078 25.9746 19.6094 26.4316C19.2148 26.8887 19.0176 27.6289 19.0176 28.6523C19.0176 29.7383 19.2129 30.5117 19.6035 30.9727C19.9941 31.4336 20.502 31.6641 21.127 31.6641C21.5879 31.6641 21.9844 31.5176 22.3164 31.2246C22.6484 30.9316 22.8867 30.4707 23.0312 29.8418ZM28.3984 33L25.3281 24.4102H27.209L29.3828 30.7676L31.4863 24.4102H33.3262L30.25 33H28.3984Z" fill="white"/>
<path d="M85.438 44.6885C83.2808 44.6885 81.1465 44.4131 79.0352 43.8623C76.9391 43.2962 75.0343 42.3706 73.3208 41.0854C71.6073 39.8003 70.238 38.0715 69.2129 35.8989C68.2031 33.7264 67.6982 31.026 67.6982 27.7979C67.6982 24.7686 68.2261 22.1753 69.2817 20.0181C70.3527 17.8455 71.745 16.0785 73.4585 14.7168C75.1873 13.3551 77.0615 12.353 79.0811 11.7104C81.1006 11.0679 83.0589 10.7466 84.9561 10.7466C87.3122 10.7466 89.1864 10.8996 90.5786 11.2056C91.9862 11.5116 93.0801 11.8328 93.8604 12.1694C94.6406 12.4907 95.2603 12.6896 95.7192 12.7661L96.1323 20.064C96.1629 20.3241 95.987 20.5459 95.6045 20.7295C95.2373 20.8978 94.9543 20.9819 94.7554 20.9819C94.7095 20.9819 94.6636 20.9896 94.6177 21.0049C94.5871 21.0049 94.5335 21.0049 94.457 21.0049C94.1816 21.0049 93.8757 20.959 93.5391 20.8672C93.2178 20.7601 93.0342 20.5841 92.9883 20.3394C92.7282 19.0236 92.2998 17.8073 91.7031 16.6904C91.1064 15.5736 90.265 14.6709 89.1787 13.9824C88.0924 13.2939 86.6696 12.9497 84.9102 12.9497C83.9616 12.9497 82.9518 13.1104 81.8809 13.4316C80.8252 13.7376 79.8231 14.3802 78.8745 15.3594C77.9412 16.3385 77.1763 17.8226 76.5796 19.8115C75.9982 21.7852 75.7075 24.4473 75.7075 27.7979C75.7075 30.9801 76.0288 33.5428 76.6714 35.4858C77.3293 37.4289 78.1631 38.9129 79.1729 39.938C80.1979 40.9478 81.2612 41.6286 82.3628 41.9805C83.4797 42.3324 84.4971 42.5083 85.415 42.5083C87.0368 42.5083 88.3984 42.1488 89.5 41.4297C90.6169 40.6953 91.5042 39.7391 92.1621 38.561C92.8353 37.383 93.3019 36.1055 93.562 34.7285C93.6232 34.4225 93.7456 34.2236 93.9292 34.1318C94.1281 34.0247 94.3499 33.9712 94.5947 33.9712C94.7783 33.9712 95.0843 34.04 95.5127 34.1777C95.9411 34.3001 96.1553 34.4914 96.1553 34.7515L95.4668 41.5215C95.4515 41.7357 94.9925 42.1029 94.0898 42.623C93.1872 43.1279 91.9785 43.5946 90.4639 44.0229C88.9645 44.4666 87.2892 44.6885 85.438 44.6885ZM115.111 44.4131L102.168 15.2217C101.923 14.5485 101.579 14.1048 101.135 13.8906C100.692 13.6611 100.233 13.5387 99.7583 13.5234C99.284 13.5081 98.8556 13.4852 98.4731 13.4546C98.1519 13.424 97.9377 13.3628 97.8306 13.271C97.7082 13.1639 97.647 12.9421 97.647 12.6055C97.647 12.4372 97.7158 12.2 97.8535 11.894C97.9912 11.5881 98.1825 11.4351 98.4272 11.4351H112.541C112.801 11.4351 112.992 11.5881 113.115 11.894C113.252 12.2 113.321 12.4372 113.321 12.6055C113.321 13.1104 113.069 13.3934 112.564 13.4546C111.631 13.5005 110.858 13.5387 110.246 13.5693C109.634 13.5999 109.328 13.7988 109.328 14.166C109.328 14.2425 109.351 14.342 109.397 14.4644L118.393 36.8398L126.517 15.1528C126.548 15.0304 126.563 14.9463 126.563 14.9004C126.563 14.4414 126.188 14.1048 125.438 13.8906C124.689 13.6611 123.84 13.5158 122.891 13.4546C122.386 13.3934 122.134 13.1104 122.134 12.6055C122.134 12.4372 122.195 12.2 122.317 11.894C122.455 11.5881 122.654 11.4351 122.914 11.4351H133.402C133.662 11.4351 133.853 11.5881 133.976 11.894C134.113 12.2 134.182 12.4372 134.182 12.6055C134.182 12.9421 134.121 13.1639 133.999 13.271C133.891 13.3781 133.677 13.4393 133.356 13.4546C132.637 13.4852 132.033 13.5464 131.543 13.6382C131.069 13.73 130.671 13.8983 130.35 14.1431C130.044 14.3879 129.799 14.7474 129.615 15.2217L117.934 44.4131H115.111ZM147.286 42.8296C147.286 42.3247 147.539 42.0417 148.043 41.9805C148.778 41.9193 149.52 41.7892 150.27 41.5903C151.019 41.3761 151.394 41.0166 151.394 40.5117V15.6807C151.394 15.0228 151.195 14.5485 150.797 14.2578C150.415 13.9671 149.956 13.7759 149.42 13.6841C148.885 13.577 148.38 13.5005 147.906 13.4546C147.584 13.424 147.363 13.3628 147.24 13.271C147.133 13.1639 147.08 12.9421 147.08 12.6055C147.08 12.4372 147.141 12.2 147.263 11.894C147.401 11.5881 147.6 11.4351 147.86 11.4351H173.219L174.022 18.8936C174.053 19.1536 173.938 19.3525 173.678 19.4902C173.418 19.6126 173.203 19.6738 173.035 19.6738C172.79 19.6738 172.507 19.6356 172.186 19.5591C171.865 19.4673 171.612 19.2531 171.429 18.9165C170.817 17.769 170.327 16.8128 169.96 16.0479C169.593 15.2676 169.187 14.6862 168.744 14.3037C168.3 13.9059 167.665 13.707 166.839 13.707H158.233V26.1455H164.131C164.529 26.0843 164.896 25.7936 165.232 25.2734C165.569 24.7533 165.844 24.1948 166.059 23.5981C166.288 22.9862 166.418 22.5272 166.449 22.2212C166.479 21.9152 166.602 21.7163 166.816 21.6245C167.03 21.5327 167.26 21.4868 167.504 21.4868C167.673 21.4868 167.91 21.5557 168.216 21.6934C168.522 21.8158 168.675 22.007 168.675 22.2671V32.4336C168.675 32.6937 168.522 32.8926 168.216 33.0303C167.91 33.1527 167.673 33.2139 167.504 33.2139C167.26 33.2139 167.015 33.1603 166.77 33.0532C166.541 32.9461 166.41 32.7472 166.38 32.4565C166.365 32.12 166.242 31.6304 166.013 30.9878C165.799 30.3299 165.515 29.7256 165.164 29.1748C164.812 28.624 164.422 28.3486 163.993 28.3486H158.233V39.479C158.233 40.3205 158.447 40.8866 158.875 41.1772C159.319 41.4679 159.793 41.6362 160.298 41.6821H166.908C168.285 41.6821 169.44 41.2155 170.373 40.2822C171.306 39.349 172.224 37.7349 173.127 35.4399C173.234 35.1493 173.456 34.9504 173.792 34.8433C174.144 34.7362 174.443 34.6826 174.688 34.6826C174.978 34.6826 175.261 34.7515 175.537 34.8892C175.827 35.0116 175.988 35.2028 176.019 35.4629L175.032 44H148.066C147.806 44 147.607 43.847 147.47 43.541C147.347 43.235 147.286 42.9979 147.286 42.8296ZM190.109 44.6655C187.631 44.6655 185.642 44.0994 184.143 42.9673C182.659 41.8351 181.588 40.3587 180.93 38.5381C180.272 36.7174 179.943 34.7744 179.943 32.709C179.943 30.6436 180.348 28.7005 181.159 26.8799C181.985 25.0592 183.232 23.5828 184.9 22.4507C186.568 21.3032 188.687 20.7295 191.257 20.7295C192.496 20.7295 193.598 20.8366 194.562 21.0508C195.541 21.265 196.497 21.6934 197.43 22.3359L197.201 18.6411V13.4316C197.201 12.835 197.071 12.3607 196.811 12.0088C196.55 11.6416 196.199 11.3662 195.755 11.1826C195.311 10.999 194.822 10.869 194.286 10.7925C193.751 10.7007 193.215 10.6242 192.68 10.563C192.527 10.4865 192.397 10.387 192.29 10.2646C192.182 10.1423 192.129 9.93571 192.129 9.64502C192.129 9.46143 192.175 9.25488 192.267 9.02539C192.374 8.7806 192.511 8.65055 192.68 8.63525C193.995 8.54346 195.326 8.48226 196.673 8.45166C198.019 8.42106 199.243 8.40576 200.345 8.40576C201.446 8.39046 202.272 8.38281 202.823 8.38281C202.946 8.38281 203.091 8.45166 203.259 8.58936C203.428 8.71175 203.512 8.95654 203.512 9.32373V39.9839C203.512 40.9631 203.795 41.5674 204.361 41.7969C204.942 42.0111 205.516 42.1488 206.082 42.21C206.403 42.2406 206.618 42.3018 206.725 42.3936C206.847 42.4854 206.908 42.7072 206.908 43.0591C206.908 43.2274 206.839 43.4263 206.702 43.6558C206.579 43.8853 206.388 44 206.128 44H199.083C198.18 44 197.66 43.8011 197.522 43.4033C197.384 42.9902 197.323 42.3859 197.338 41.5903C196.543 42.6001 195.449 43.3651 194.057 43.8853C192.68 44.4054 191.364 44.6655 190.109 44.6655ZM192.84 41.6821C193.59 41.6821 194.393 41.4832 195.25 41.0854C196.122 40.6724 196.772 40.1216 197.201 39.4331V25.5259C196.941 24.8833 196.405 24.3172 195.594 23.8276C194.799 23.3228 193.957 23.0703 193.07 23.0703C191.448 23.0703 190.178 23.4834 189.26 24.3096C188.358 25.1204 187.723 26.2526 187.355 27.7061C186.988 29.1595 186.805 30.8271 186.805 32.709C186.805 34.4225 186.988 35.9601 187.355 37.3218C187.723 38.6681 188.342 39.7314 189.214 40.5117C190.102 41.292 191.31 41.6821 192.84 41.6821ZM220.035 54.9697C218.582 54.9697 217.182 54.8397 215.835 54.5796C214.504 54.3348 213.303 53.9523 212.232 53.4321C211.177 52.9119 210.335 52.2464 209.708 51.4355C209.081 50.64 208.767 49.6991 208.767 48.6128C208.767 47.297 209.157 46.249 209.938 45.4688C210.733 44.6885 211.773 44.0994 213.059 43.7017C211.789 43.1662 210.97 42.5389 210.603 41.8198C210.236 41.1007 210.052 40.3358 210.052 39.5249C210.052 38.4233 210.488 37.4595 211.36 36.6333C212.232 35.8071 213.204 35.2334 214.275 34.9121C212.76 34.2236 211.682 33.2674 211.039 32.0435C210.396 30.8195 210.075 29.5573 210.075 28.2568C210.075 26.8034 210.442 25.5106 211.177 24.3784C211.911 23.2463 213.013 22.3589 214.481 21.7163C215.965 21.0584 217.794 20.7295 219.966 20.7295C221.557 20.7295 222.866 20.9054 223.891 21.2573C224.916 21.6092 225.811 22.0911 226.576 22.7031C227.05 22.1676 227.631 21.701 228.32 21.3032C229.008 20.8901 229.743 20.6836 230.523 20.6836C231.487 20.6836 232.328 20.9743 233.047 21.5557C233.782 22.137 234.149 23.055 234.149 24.3096C234.149 25.2428 233.973 25.9543 233.621 26.4438C233.285 26.9334 232.787 27.1782 232.129 27.1782L229.421 23.231C229.054 23.2463 228.741 23.3075 228.48 23.4146C228.22 23.5063 227.96 23.667 227.7 23.8965C228.603 25.1204 229.054 26.5586 229.054 28.2109C229.054 29.6338 228.718 30.9342 228.044 32.1123C227.387 33.2904 226.354 34.2236 224.946 34.9121C223.554 35.5853 221.749 35.9219 219.53 35.9219C218.75 35.9219 218.046 35.8913 217.419 35.8301C216.792 35.7536 216.218 35.6388 215.698 35.4858C215.285 35.7459 214.963 36.0825 214.734 36.4956C214.504 36.8934 214.39 37.3141 214.39 37.7578C214.39 38.431 214.734 38.8823 215.422 39.1118C216.111 39.3413 216.983 39.4561 218.039 39.4561H224.051C225.673 39.4561 227.088 39.7161 228.297 40.2363C229.521 40.7565 230.469 41.5521 231.143 42.623C231.816 43.6787 232.152 45.0174 232.152 46.6392C232.152 47.9396 231.709 49.2248 230.821 50.4946C229.934 51.7798 228.595 52.8431 226.805 53.6846C225.015 54.5413 222.758 54.9697 220.035 54.9697ZM220.655 52.7207C221.481 52.7207 222.277 52.6289 223.042 52.4453C223.822 52.2617 224.51 51.9787 225.107 51.5962C225.704 51.2137 226.178 50.7394 226.53 50.1733C226.882 49.6226 227.058 48.98 227.058 48.2456C227.058 47.603 226.92 47.0216 226.645 46.5015C226.369 45.9966 225.925 45.5911 225.313 45.2852C224.701 44.9792 223.906 44.8262 222.927 44.8262H218.612C218.26 44.8262 217.832 44.8032 217.327 44.7573C216.838 44.7267 216.363 44.6732 215.904 44.5967C215.445 44.5202 215.101 44.436 214.872 44.3442C214.688 44.7114 214.52 45.1245 214.367 45.5835C214.229 46.0578 214.16 46.731 214.16 47.603C214.16 48.8576 214.504 49.8597 215.193 50.6094C215.881 51.359 216.73 51.8945 217.74 52.2158C218.75 52.5524 219.722 52.7207 220.655 52.7207ZM219.622 33.8564C220.525 33.8564 221.229 33.5964 221.733 33.0762C222.254 32.5407 222.613 31.8446 222.812 30.9878C223.026 30.1157 223.133 29.1825 223.133 28.188C223.133 26.7039 222.881 25.4341 222.376 24.3784C221.886 23.3228 220.961 22.7949 219.599 22.7949C218.696 22.7949 218 23.0474 217.511 23.5522C217.036 24.0571 216.708 24.7303 216.524 25.5718C216.34 26.3979 216.249 27.3159 216.249 28.3257C216.249 29.3049 216.34 30.2228 216.524 31.0796C216.708 31.9211 217.044 32.5942 217.534 33.0991C218.023 33.604 218.719 33.8564 219.622 33.8564ZM247.804 44.6655C243.581 44.6655 240.46 43.5946 238.44 41.4526C236.436 39.3107 235.434 36.3273 235.434 32.5024C235.434 29.9474 235.993 27.7979 237.109 26.0537C238.226 24.2943 239.703 22.9709 241.539 22.0835C243.375 21.1808 245.356 20.7295 247.482 20.7295C249.716 20.7295 251.529 21.0508 252.921 21.6934C254.329 22.3359 255.408 23.2386 256.157 24.4014C256.907 25.5641 257.412 26.9564 257.672 28.5781C257.764 29.1289 257.825 29.7409 257.855 30.4141C257.886 31.0719 257.901 31.7222 257.901 32.3647L242.365 32.3877C242.365 34.7591 242.717 36.6333 243.42 38.0103C244.124 39.3719 244.996 40.3434 246.037 40.9248C247.092 41.5062 248.148 41.7969 249.204 41.7969C250.519 41.7969 251.659 41.5903 252.623 41.1772C253.587 40.7642 254.398 40.1139 255.056 39.2266C255.117 39.1501 255.186 39.0659 255.262 38.9741C255.339 38.8823 255.453 38.8517 255.606 38.8823L256.662 39.3643C256.815 39.4255 256.892 39.5173 256.892 39.6396C256.892 39.7008 256.876 39.7697 256.846 39.8462C256.83 39.9074 256.8 39.9686 256.754 40.0298C256.004 41.3914 254.895 42.5083 253.426 43.3804C251.958 44.2371 250.083 44.6655 247.804 44.6655ZM242.434 30.2993L251.04 30.2534C251.04 27.5913 250.726 25.6789 250.099 24.5161C249.487 23.3381 248.592 22.749 247.414 22.749C246.572 22.749 245.792 22.9785 245.073 23.4375C244.369 23.8965 243.78 24.6768 243.306 25.7783C242.847 26.8646 242.556 28.3716 242.434 30.2993Z" fill="#8A79AB"/>
</svg>
