<svg width="261" height="61" viewBox="0 0 261 61" fill="none" xmlns="http://www.w3.org/2000/svg">
<path d="M5 15.5C7.76142 15.5 10 13.2614 10 10.5C10 7.73858 7.76142 5.5 5 5.5C2.23858 5.5 0 7.73858 0 10.5C0 13.2614 2.23858 15.5 5 15.5Z" fill="#0891B2"/>
<path d="M45 5.5V45.5" stroke="#0891B2" stroke-width="2"/>
<path d="M45 15.5C47.7614 15.5 50 13.2614 50 10.5C50 7.73858 47.7614 5.5 45 5.5C42.2386 5.5 40 7.73858 40 10.5C40 13.2614 42.2386 15.5 45 15.5Z" fill="#0891B2"/>
<path d="M5 55.5C7.76142 55.5 10 53.2614 10 50.5C10 47.7386 7.76142 45.5 5 45.5C2.23858 45.5 0 47.7386 0 50.5C0 53.2614 2.23858 55.5 5 55.5Z" fill="#0891B2"/>
<path d="M45 55.5C47.7614 55.5 50 53.2614 50 50.5C50 47.7386 47.7614 45.5 45 45.5C42.2386 45.5 40 47.7386 40 50.5C40 53.2614 42.2386 55.5 45 55.5Z" fill="#0891B2"/>
<path d="M5 10.5H45" stroke="#0891B2" stroke-width="2"/>
<path d="M5 50.5H45" stroke="#0891B2" stroke-width="2"/>
<path d="M5 10.5V50.5" stroke="#0891B2" stroke-width="2"/>
<path d="M35 20.5H15V40.5H35V20.5Z" fill="#0891B2"/>
<path d="M23.0312 30.3418L24.7129 30.875C24.4551 31.8125 24.0254 32.5098 23.4238 32.9668C22.8262 33.4199 22.0664 33.6465 21.1445 33.6465C20.0039 33.6465 19.0664 33.2578 18.332 32.4805C17.5977 31.6992 17.2305 30.6328 17.2305 29.2812C17.2305 27.8516 17.5996 26.7422 18.3379 25.9531C19.0762 25.1602 20.0469 24.7637 21.25 24.7637C22.3008 24.7637 23.1543 25.0742 23.8105 25.6953C24.2012 26.0625 24.4941 26.5898 24.6895 27.2773L22.9727 27.6875C22.8711 27.2422 22.6582 26.8906 22.334 26.6328C22.0137 26.375 21.623 26.2461 21.1621 26.2461C20.5254 26.2461 20.0078 26.4746 19.6094 26.9316C19.2148 27.3887 19.0176 28.1289 19.0176 29.1523C19.0176 30.2383 19.2129 31.0117 19.6035 31.4727C19.9941 31.9336 20.502 32.1641 21.127 32.1641C21.5879 32.1641 21.9844 32.0176 22.3164 31.7246C22.6484 31.4316 22.8867 30.9707 23.0312 30.3418ZM28.3984 33.5L25.3281 24.9102H27.209L29.3828 31.2676L31.4863 24.9102H33.3262L30.25 33.5H28.3984Z" fill="white"/>
<path d="M83.625 47.752C80.5857 47.752 77.8753 47.0627 75.494 45.684C73.144 44.3053 71.2953 42.3157 69.948 39.715C68.632 37.1143 67.974 33.9967 67.974 30.362C67.974 26.8213 68.6163 23.7507 69.901 21.15C71.1857 18.518 73.0187 16.4813 75.4 15.04C77.7813 13.5987 80.57 12.878 83.766 12.878C88.1213 12.878 91.5053 13.959 93.918 16.121C96.362 18.2517 97.9287 21.3067 98.618 25.286L91.192 25.568C90.816 23.4687 90.0013 21.8393 88.748 20.68C87.4947 19.4893 85.834 18.894 83.766 18.894C81.98 18.894 80.4603 19.364 79.207 20.304C77.9537 21.244 76.998 22.5757 76.34 24.299C75.682 26.0223 75.353 28.0433 75.353 30.362C75.353 32.712 75.682 34.7487 76.34 36.472C77.0293 38.164 78.0007 39.4643 79.254 40.373C80.5073 41.2817 81.9957 41.736 83.719 41.736C85.975 41.736 87.714 41.1093 88.936 39.856C90.1893 38.5713 90.9727 36.801 91.286 34.545L98.759 34.827C98.3203 37.553 97.4587 39.8717 96.174 41.783C94.8893 43.6943 93.1973 45.167 91.098 46.201C89.03 47.235 86.539 47.752 83.625 47.752ZM112.247 47L100.215 13.63H107.594L116.477 38.963L125.36 13.63H132.739L120.66 47H112.247ZM147.827 47V13.63H171.045V19.646H154.971V27.307H170.481V33.229H154.971V40.984H171.421V47H147.827ZM184.976 47.564C182.846 47.564 180.997 47.0313 179.43 45.966C177.895 44.8693 176.704 43.3497 175.858 41.407C175.044 39.433 174.636 37.0987 174.636 34.404C174.636 31.7093 175.059 29.3907 175.905 27.448C176.751 25.474 177.942 23.9543 179.477 22.889C181.044 21.7923 182.877 21.244 184.976 21.244C186.762 21.244 188.298 21.62 189.582 22.372C190.898 23.0927 191.885 24.0953 192.543 25.38V13.63H199.593V47H192.872L192.731 43.287C192.042 44.6343 191.008 45.684 189.629 46.436C188.282 47.188 186.731 47.564 184.976 47.564ZM187.279 42.159C188.407 42.159 189.363 41.8613 190.146 41.266C190.93 40.6707 191.525 39.809 191.932 38.681C192.34 37.5217 192.543 36.096 192.543 34.404C192.543 32.6807 192.34 31.255 191.932 30.127C191.525 28.9677 190.93 28.106 190.146 27.542C189.363 26.9467 188.407 26.649 187.279 26.649C185.619 26.649 184.303 27.354 183.331 28.764C182.36 30.1427 181.874 32.0227 181.874 34.404C181.874 36.754 182.36 38.634 183.331 40.044C184.334 41.454 185.65 42.159 187.279 42.159ZM216.609 54.614C214.196 54.614 212.175 54.3163 210.546 53.721C208.948 53.1257 207.663 52.2953 206.692 51.23C205.752 50.1647 205.094 48.9427 204.718 47.564L211.956 47.047C212.206 47.8617 212.676 48.504 213.366 48.974C214.086 49.444 215.167 49.679 216.609 49.679C218.301 49.679 219.585 49.2717 220.463 48.457C221.371 47.6737 221.826 46.4047 221.826 44.65V41.971C221.23 43.1303 220.275 44.0703 218.959 44.791C217.643 45.4803 216.17 45.825 214.541 45.825C212.473 45.825 210.64 45.3237 209.042 44.321C207.444 43.287 206.19 41.8613 205.282 40.044C204.404 38.1953 203.966 36.0333 203.966 33.558C203.966 31.1453 204.404 29.0147 205.282 27.166C206.19 25.3173 207.428 23.876 208.995 22.842C210.593 21.7767 212.41 21.244 214.447 21.244C216.295 21.244 217.846 21.6513 219.1 22.466C220.384 23.2807 221.356 24.3617 222.014 25.709V21.808H228.923V44.509C228.923 46.765 228.406 48.6293 227.372 50.102C226.338 51.606 224.896 52.734 223.048 53.486C221.199 54.238 219.053 54.614 216.609 54.614ZM216.562 40.608C218.191 40.608 219.476 39.9813 220.416 38.728C221.387 37.4747 221.873 35.7357 221.873 33.511C221.873 32.0383 221.653 30.7693 221.215 29.704C220.807 28.6387 220.196 27.824 219.382 27.26C218.598 26.696 217.658 26.414 216.562 26.414C214.87 26.414 213.554 27.0563 212.614 28.341C211.674 29.6257 211.204 31.349 211.204 33.511C211.204 35.7043 211.689 37.4433 212.661 38.728C213.632 39.9813 214.932 40.608 216.562 40.608ZM245.985 47.564C243.415 47.564 241.175 47.0313 239.264 45.966C237.384 44.8693 235.911 43.334 234.846 41.36C233.812 39.386 233.295 37.0673 233.295 34.404C233.295 31.7407 233.812 29.4377 234.846 27.495C235.911 25.521 237.384 23.9857 239.264 22.889C241.144 21.7923 243.368 21.244 245.938 21.244C248.444 21.244 250.622 21.7923 252.471 22.889C254.319 23.9857 255.745 25.5523 256.748 27.589C257.782 29.6257 258.299 32.054 258.299 34.874V36.284H240.58C240.674 38.2893 241.206 39.7777 242.178 40.749C243.18 41.7203 244.496 42.206 246.126 42.206C247.316 42.206 248.303 41.9553 249.087 41.454C249.901 40.9527 250.481 40.185 250.826 39.151L257.923 39.574C257.265 42.0807 255.87 44.039 253.74 45.449C251.609 46.859 249.024 47.564 245.985 47.564ZM240.58 31.96H251.061C250.967 30.1113 250.45 28.7327 249.51 27.824C248.601 26.9153 247.41 26.461 245.938 26.461C244.465 26.461 243.243 26.9467 242.272 27.918C241.332 28.858 240.768 30.2053 240.58 31.96Z" fill="#0891B2"/>
</svg>
