<svg width="155" height="38" viewBox="0 0 155 38" fill="none" xmlns="http://www.w3.org/2000/svg">
<path d="M30 0H8C3.58172 0 0 3.58172 0 8V30C0 34.4183 3.58172 38 8 38H30C34.4183 38 38 34.4183 38 30V8C38 3.58172 34.4183 0 30 0Z" fill="#065F46"/>
<path d="M25.6 9H9.4C8.6268 9 8 9.6268 8 10.4C8 11.1732 8.6268 11.8 9.4 11.8H25.6C26.3732 11.8 27 11.1732 27 10.4C27 9.6268 26.3732 9 25.6 9Z" fill="white"/>
<path opacity="0.6" d="M20.8 15.5H9.2C8.53726 15.5 8 16.0373 8 16.7C8 17.3627 8.53726 17.9 9.2 17.9H20.8C21.4627 17.9 22 17.3627 22 16.7C22 16.0373 21.4627 15.5 20.8 15.5Z" fill="white"/>
<path opacity="0.6" d="M22.8 21.5H9.2C8.53726 21.5 8 22.0373 8 22.7C8 23.3627 8.53726 23.9 9.2 23.9H22.8C23.4627 23.9 24 23.3627 24 22.7C24 22.0373 23.4627 21.5 22.8 21.5Z" fill="white"/>
<path opacity="0.35" d="M16.8 27.5H9.2C8.53726 27.5 8 28.0373 8 28.7C8 29.3627 8.53726 29.9 9.2 29.9H16.8C17.4627 29.9 18 29.3627 18 28.7C18 28.0373 17.4627 27.5 16.8 27.5Z" fill="white"/>
<path d="M32 14C34.4853 14 36.5 11.9853 36.5 9.5C36.5 7.01472 34.4853 5 32 5C29.5147 5 27.5 7.01472 27.5 9.5C27.5 11.9853 29.5147 14 32 14Z" fill="#34D399"/>
<path d="M32 11.5C33.1046 11.5 34 10.6046 34 9.5C34 8.39543 33.1046 7.5 32 7.5C30.8954 7.5 30 8.39543 30 9.5C30 10.6046 30.8954 11.5 32 11.5Z" fill="#065F46"/>
<path d="M57.125 26.304C55.8963 26.304 54.8007 26.0253 53.838 25.468C52.888 24.9107 52.1407 24.1063 51.596 23.055C51.064 22.0037 50.798 20.7433 50.798 19.274C50.798 17.8427 51.0577 16.6013 51.577 15.55C52.0963 14.486 52.8373 13.6627 53.8 13.08C54.7627 12.4973 55.89 12.206 57.182 12.206C58.9427 12.206 60.3107 12.643 61.286 13.517C62.274 14.3783 62.9073 15.6133 63.186 17.222L60.184 17.336C60.032 16.4873 59.7027 15.8287 59.196 15.36C58.6893 14.8787 58.018 14.638 57.182 14.638C56.46 14.638 55.8457 14.828 55.339 15.208C54.8323 15.588 54.446 16.1263 54.18 16.823C53.914 17.5197 53.781 18.3367 53.781 19.274C53.781 20.224 53.914 21.0473 54.18 21.744C54.4587 22.428 54.8513 22.9537 55.358 23.321C55.8647 23.6883 56.4663 23.872 57.163 23.872C58.075 23.872 58.778 23.6187 59.272 23.112C59.7787 22.5927 60.0953 21.877 60.222 20.965L63.243 21.079C63.0657 22.181 62.7173 23.1183 62.198 23.891C61.6787 24.6637 60.9947 25.259 60.146 25.677C59.31 26.095 58.303 26.304 57.125 26.304ZM68.6957 26L63.8317 12.51H66.8147L70.4057 22.751L73.9967 12.51H76.9797L72.0967 26H68.6957Z" fill="black"/>
<path d="M78.2361 26V12.51H87.6221V14.942H81.1241V18.039H87.3941V20.433H81.1241V23.568H87.7741V26H78.2361ZM93.2541 26.228C92.3928 26.228 91.6454 26.0127 91.0121 25.582C90.3914 25.1387 89.9101 24.5243 89.5681 23.739C89.2388 22.941 89.0741 21.9973 89.0741 20.908C89.0741 19.8187 89.2451 18.8813 89.5871 18.096C89.9291 17.298 90.4104 16.6837 91.0311 16.253C91.6644 15.8097 92.4054 15.588 93.2541 15.588C93.9761 15.588 94.5968 15.74 95.1161 16.044C95.6481 16.3353 96.0471 16.7407 96.3131 17.26V12.51H99.1631V26H96.4461L96.3891 24.499C96.1104 25.0437 95.6924 25.468 95.1351 25.772C94.5904 26.076 93.9634 26.228 93.2541 26.228ZM94.1851 24.043C94.6411 24.043 95.0274 23.9227 95.3441 23.682C95.6608 23.4413 95.9014 23.093 96.0661 22.637C96.2308 22.1683 96.3131 21.592 96.3131 20.908C96.3131 20.2113 96.2308 19.635 96.0661 19.179C95.9014 18.7103 95.6608 18.362 95.3441 18.134C95.0274 17.8933 94.6411 17.773 94.1851 17.773C93.5138 17.773 92.9818 18.058 92.5891 18.628C92.1964 19.1853 92.0001 19.9453 92.0001 20.908C92.0001 21.858 92.1964 22.618 92.5891 23.188C92.9944 23.758 93.5264 24.043 94.1851 24.043ZM106.042 29.078C105.066 29.078 104.249 28.9577 103.591 28.717C102.945 28.4763 102.425 28.1407 102.033 27.71C101.653 27.2793 101.387 26.7853 101.235 26.228L104.161 26.019C104.262 26.3483 104.452 26.608 104.731 26.798C105.022 26.988 105.459 27.083 106.042 27.083C106.726 27.083 107.245 26.9183 107.6 26.589C107.967 26.2723 108.151 25.7593 108.151 25.05V23.967C107.91 24.4357 107.524 24.8157 106.992 25.107C106.46 25.3857 105.864 25.525 105.206 25.525C104.37 25.525 103.629 25.3223 102.983 24.917C102.337 24.499 101.83 23.9227 101.463 23.188C101.108 22.4407 100.931 21.5667 100.931 20.566C100.931 19.5907 101.108 18.7293 101.463 17.982C101.83 17.2347 102.33 16.652 102.964 16.234C103.61 15.8033 104.344 15.588 105.168 15.588C105.915 15.588 106.542 15.7527 107.049 16.082C107.568 16.4113 107.961 16.8483 108.227 17.393V15.816H111.02V24.993C111.02 25.905 110.811 26.6587 110.393 27.254C109.975 27.862 109.392 28.318 108.645 28.622C107.897 28.926 107.03 29.078 106.042 29.078ZM106.023 23.416C106.681 23.416 107.201 23.1627 107.581 22.656C107.973 22.1493 108.17 21.4463 108.17 20.547C108.17 19.9517 108.081 19.4387 107.904 19.008C107.739 18.5773 107.492 18.248 107.163 18.02C106.846 17.792 106.466 17.678 106.023 17.678C105.339 17.678 104.807 17.9377 104.427 18.457C104.047 18.9763 103.857 19.673 103.857 20.547C103.857 21.4337 104.053 22.1367 104.446 22.656C104.838 23.1627 105.364 23.416 106.023 23.416ZM117.917 26.228C116.878 26.228 115.973 26.0127 115.2 25.582C114.44 25.1387 113.845 24.518 113.414 23.72C112.996 22.922 112.787 21.9847 112.787 20.908C112.787 19.8313 112.996 18.9003 113.414 18.115C113.845 17.317 114.44 16.6963 115.2 16.253C115.96 15.8097 116.859 15.588 117.898 15.588C118.911 15.588 119.792 15.8097 120.539 16.253C121.286 16.6963 121.863 17.3297 122.268 18.153C122.686 18.9763 122.895 19.958 122.895 21.098V21.668H115.732C115.77 22.4787 115.985 23.0803 116.378 23.473C116.783 23.8657 117.315 24.062 117.974 24.062C118.455 24.062 118.854 23.9607 119.171 23.758C119.5 23.5553 119.735 23.245 119.874 22.827L122.743 22.998C122.477 24.0113 121.913 24.803 121.052 25.373C120.191 25.943 119.146 26.228 117.917 26.228ZM115.732 19.92H119.969C119.931 19.1727 119.722 18.6153 119.342 18.248C118.975 17.8807 118.493 17.697 117.898 17.697C117.303 17.697 116.809 17.8933 116.416 18.286C116.036 18.666 115.808 19.2107 115.732 19.92Z" fill="#065F46"/>
</svg>
